SplineFontDB: 3.2
FontName: RictyDiminished-Bold
FullName: Ricty Diminished Bold
FamilyName: Ricty Diminished
Weight: Bold
Copyright: Copyright (c) 2011-2017 Yasunori Yusa\nCopyright (c) 2006 The Inconsolata Project Authors\nCopyright (c) 2020 itouhiro\nCopyright (C) 2002-2019 M+ FONTS PROJECT\nSIL Open Font License Version 1.1 (http://scripts.sil.org/ofl)
Version: 4.1.1.20200415
ItalicAngle: 0
UnderlinePosition: -150
UnderlineWidth: 50
Ascent: 860
Descent: 140
InvalidEm: 0
sfntRevision: 0x00041999
LayerCount: 2
Layer: 0 1 "+gMyXYgAA" 1
Layer: 1 1 "+Uk2XYgAA" 0
XUID: [1021 1008 -2030067150 13338373]
StyleMap: 0x0020
FSType: 0
OS2Version: 1
OS2_WeightWidthSlopeOnly: 0
OS2_UseTypoMetrics: 0
CreationTime: 1586902774
ModificationTime: 1739620962
PfmFamily: 17
TTFWeight: 700
TTFWidth: 5
LineGap: 0
VLineGap: 0
Panose: 2 11 8 9 2 2 3 2 2 7
OS2TypoAscent: 860
OS2TypoAOffset: 0
OS2TypoDescent: -140
OS2TypoDOffset: 0
OS2TypoLinegap: 0
OS2WinAscent: 835
OS2WinAOffset: 0
OS2WinDescent: 215
OS2WinDOffset: 0
HheadAscent: 835
HheadAOffset: 0
HheadDescent: -215
HheadDOffset: 0
OS2SubXSize: 650
OS2SubYSize: 699
OS2SubXOff: 0
OS2SubYOff: 140
OS2SupXSize: 650
OS2SupYSize: 699
OS2SupXOff: 0
OS2SupYOff: 479
OS2StrikeYSize: 49
OS2StrikeYPos: 258
OS2FamilyClass: 2057
OS2Vendor: 'PfEd'
OS2CodePages: 4012019f.dfd70000
OS2UnicodeRanges: e00002bf.6ac7fdfb.04000012.00000000
MarkAttachClasses: 1
DEI: 91125
MacFeat: 0 0 0
MacName: 0 0 24 "All Typographic Features"
MacName: 0 1 24 "Fonctions typographiques"
MacName: 0 2 32 "Alle typografischen Mglichkeiten"
MacName: 0 3 21 "Funzioni Tipografiche"
MacName: 0 4 28 "Alle typografische kenmerken"
MacSetting: 0
MacName: 0 0 17 "All Type Features"
MacName: 0 1 31 "Toutes fonctions typographiques"
MacName: 0 2 23 "Alle Auszeichnungsarten"
MacName: 0 3 17 "Tutte le Funzioni"
MacName: 0 4 18 "Alle typekenmerken"
MacFeat: 10 1 0
MacName: 0 0 17 "Vertical Position"
MacName: 0 1 18 "Position Verticale"
MacName: 0 4 17 "Verticale positie"
MacSetting: 0

StartChar: u1B132
Encoding: 110898 110898 0
Width: 1000
Flags: W
LayerCount: 2
Fore
SplineSet
308 130 m 0,0,1
 308 91 308 91 356 72 c 128,-1,2
 404 53 404 53 480 53 c 0,3,4
 573 53 573 53 684 77 c 0,5,6
 704 81 704 81 723 87 c 1,7,-1
 743 -8 l 1,8,9
 655 -35 655 -35 522 -42 c 0,10,11
 507 -43 507 -43 480 -43 c 0,12,13
 311 -43 311 -43 240 28 c 0,14,15
 201 67 201 67 200 120 c 0,16,17
 200 147 200 147 212 175.5 c 128,-1,18
 224 204 224 204 245.5 231.5 c 128,-1,19
 267 259 267 259 281 274 c 128,-1,20
 295 289 295 289 316 309 c 1,21,-1
 392 250 l 1,22,23
 309 166 309 166 308 130 c 0,0,1
265 430 m 1,24,-1
 265 522 l 1,25,-1
 698 522 l 1,26,-1
 698 430 l 1,27,-1
 265 430 l 1,24,-1
EndSplineSet
Colour: ff00ff
EndChar

StartChar: u1B150
Encoding: 110928 110928 1
Width: 1000
Flags: W
LayerCount: 2
Fore
SplineSet
243 470 m 1,0,-1
 243 553 l 1,1,-1
 571 553 l 1,2,-1
 571 474 l 1,3,-1
 556 419 l 1,4,5
 682 402 682 402 746 318 c 0,6,7
 792 257 792 257 792 177 c 0,8,9
 792 44 792 44 720 -18 c 0,10,11
 678 -54 678 -54 622 -55 c 0,12,13
 546 -55 546 -55 507 -2 c 0,14,15
 485 28 485 28 485 69 c 0,16,17
 485 134 485 134 537 170 c 0,18,19
 573 194 573 194 617 194 c 0,20,21
 659 194 659 194 696 169 c 1,22,-1
 696 177 l 2,23,24
 696 259 696 259 626 301 c 0,25,26
 585 325 585 325 531 330 c 1,27,28
 451 62 451 62 380 -5 c 0,29,30
 346 -36 346 -36 305 -35 c 0,31,32
 236 -35 236 -35 197 23 c 0,33,34
 164 71 164 71 164 137 c 0,35,36
 164 258 164 258 254 339 c 0,37,38
 332 408 332 408 453 420 c 1,39,40
 466 471 466 471 466 470 c 1,41,-1
 243 470 l 1,0,-1
260 137 m 0,42,43
 260 115 260 115 264.5 99 c 128,-1,44
 269 83 269 83 276.5 76 c 128,-1,45
 284 69 284 69 290 66 c 128,-1,46
 296 63 296 63 301 63 c 0,47,48
 313 63 313 63 331.5 89 c 128,-1,49
 350 115 350 115 376 176 c 128,-1,50
 402 237 402 237 428 323 c 1,51,52
 330 301 330 301 286 230 c 0,53,54
 260 187 260 187 260 137 c 0,42,43
576 73 m 0,55,56
 576 50 576 50 591 42 c 128,-1,57
 606 34 606 34 622 34 c 0,58,59
 664 36 664 36 681 78 c 1,60,61
 651 108 651 108 622 108 c 0,62,63
 587 108 587 108 578 84 c 0,64,65
 576 77 576 77 576 73 c 0,55,56
EndSplineSet
Colour: ff00ff
EndChar

StartChar: u1B151
Encoding: 110929 110929 2
Width: 1000
Flags: W
LayerCount: 2
Fore
SplineSet
604 120 m 1,0,-1
 687 158 l 1,1,2
 749 77 749 77 803 -18 c 1,3,-1
 716 -50 l 1,4,5
 670 34 670 34 604 120 c 1,0,-1
663 305 m 0,6,7
 663 333 663 333 626 346 c 128,-1,8
 589 359 589 359 500 359 c 0,9,10
 369 359 369 359 205 316 c 1,11,-1
 181 389 l 1,12,-1
 460 469 l 1,13,-1
 249 469 l 1,14,-1
 249 551 l 1,15,-1
 718 551 l 1,16,-1
 718 477 l 1,17,-1
 559 430 l 1,18,19
 583 432 583 432 591 431 c 0,20,21
 705 431 705 431 747 369 c 0,22,23
 764 344 764 344 765 309 c 0,24,25
 765 228 765 228 682 187.5 c 128,-1,26
 599 147 599 147 449 147 c 2,27,-1
 425 147 l 1,28,29
 393 127 393 127 375 112 c 1,30,31
 388 116 388 116 404 116 c 0,32,33
 421 116 421 116 436 108 c 128,-1,34
 451 100 451 100 458 93 c 128,-1,35
 465 86 465 86 474 74 c 0,36,37
 496 43 496 43 513 41 c 0,38,39
 515 40 515 40 519 40 c 0,40,41
 537 40 537 40 550.5 51 c 128,-1,42
 564 62 564 62 587 89 c 1,43,-1
 642 23 l 1,44,45
 599 -37 599 -37 541 -48 c 0,46,47
 526 -50 526 -50 521 -50 c 0,48,49
 464 -50 464 -50 431 -14 c 1,50,-1
 431 -13 l 1,51,52
 414 8 414 8 406 16 c 0,53,54
 389 33 389 33 365 34 c 0,55,56
 302 34 302 34 234 -51 c 1,57,-1
 153 1 l 1,58,59
 234 101 234 101 312 161 c 1,60,61
 220 186 220 186 220 249 c 0,62,63
 220 288 220 288 271 315 c 0,64,65
 321 340 321 340 387 340 c 0,66,67
 543 338 543 338 545 254 c 0,68,69
 545 246 545 246 542 233 c 1,70,71
 662 250 662 250 663 305 c 0,6,7
447 252 m 0,72,73
 445 269 445 269 387 269 c 128,-1,74
 329 269 329 269 321 252 c 2,75,-1
 320 249 l 1,76,77
 320 230 320 230 421 228 c 1,78,79
 445 244 445 244 447 252 c 0,72,73
EndSplineSet
Colour: ff00ff
EndChar

StartChar: u1B152
Encoding: 110930 110930 3
Width: 1000
Flags: W
LayerCount: 2
Fore
SplineSet
447 383 m 0,0,1
 480 383 480 383 505 374 c 128,-1,2
 530 365 530 365 545 349 c 128,-1,3
 560 333 560 333 566.5 323 c 128,-1,4
 573 313 573 313 580 298 c 1,5,6
 660 315 660 315 734 322 c 1,7,-1
 742 234 l 1,8,9
 666 224 666 224 601 211 c 1,10,11
 607 157 607 157 607 104 c 2,12,-1
 607 99 l 1,13,-1
 503 99 l 1,14,-1
 503 104 l 2,15,16
 503 154 503 154 500 184 c 1,17,18
 399 149 399 149 388 108 c 1,19,-1
 387 101 l 1,20,21
 387 69 387 69 423 56 c 0,22,23
 461 43 461 43 541 43 c 0,24,25
 612 43 612 43 724 60 c 1,26,-1
 733 -30 l 1,27,28
 636 -45 636 -45 541 -45 c 0,29,30
 464 -45 464 -45 411 -34.5 c 128,-1,31
 358 -24 358 -24 331 -4 c 128,-1,32
 304 16 304 16 292.5 38.5 c 128,-1,33
 281 61 281 61 281 91 c 0,34,35
 281 204 281 204 480 271 c 1,36,37
 464 299 464 299 425 299 c 0,38,39
 349 298 349 298 246 152 c 1,40,-1
 163 202 l 1,41,42
 246 317 246 317 294 420 c 1,43,-1
 174 420 l 1,44,-1
 174 505 l 1,45,-1
 330 505 l 1,46,47
 340 531 340 531 358 586 c 1,48,-1
 460 567 l 1,49,50
 458 561 458 561 437 505 c 1,51,-1
 734 505 l 1,52,-1
 734 420 l 1,53,-1
 402 420 l 1,54,55
 384 378 384 378 381 370 c 1,56,57
 391 374 391 374 407 377 c 128,-1,58
 423 380 423 380 434 381.5 c 128,-1,59
 445 383 445 383 447 383 c 0,0,1
EndSplineSet
Colour: ff00ff
EndChar

StartChar: u1B155
Encoding: 110933 110933 4
Width: 1000
Flags: W
LayerCount: 2
Fore
SplineSet
210 512 m 1,0,-1
 736 512 l 1,1,-1
 736 -4 l 1,2,-1
 210 -4 l 1,3,-1
 210 91 l 1,4,-1
 632 91 l 1,5,-1
 632 417 l 1,6,-1
 210 417 l 1,7,-1
 210 512 l 1,0,-1
EndSplineSet
Colour: ff00ff
EndChar

StartChar: u1B164
Encoding: 110948 110948 5
Width: 1000
Flags: W
LayerCount: 2
Fore
SplineSet
403 377 m 1,0,-1
 403 160 l 1,1,-1
 553 160 l 1,2,-1
 553 377 l 1,3,-1
 403 377 l 1,0,-1
296 160 m 1,4,-1
 296 377 l 1,5,-1
 195 377 l 1,6,-1
 195 474 l 1,7,-1
 553 474 l 1,8,-1
 553 561 l 1,9,-1
 660 561 l 1,10,-1
 660 474 l 1,11,-1
 770 474 l 1,12,-1
 770 377 l 1,13,-1
 660 377 l 1,14,-1
 660 160 l 1,15,-1
 794 160 l 1,16,-1
 794 63 l 1,17,-1
 660 63 l 1,18,-1
 660 -52 l 1,19,-1
 553 -52 l 1,20,-1
 553 63 l 1,21,-1
 162 63 l 1,22,-1
 162 160 l 1,23,-1
 296 160 l 1,4,-1
EndSplineSet
Colour: ff00ff
EndChar

StartChar: u1B165
Encoding: 110949 110949 6
Width: 1000
Flags: W
LayerCount: 2
Fore
SplineSet
208 424 m 1,0,-1
 208 520 l 1,1,-1
 761 520 l 1,2,-1
 761 429 l 1,3,4
 745 383 745 383 723 343 c 128,-1,5
 701 303 701 303 676 273 c 128,-1,6
 651 243 651 243 635.5 227 c 128,-1,7
 620 211 620 211 598 192 c 1,8,-1
 519 266 l 1,9,10
 607 333 607 333 647 424 c 1,11,-1
 208 424 l 1,0,-1
770 84 m 1,12,-1
 770 -11 l 1,13,-1
 186 -11 l 1,14,-1
 186 84 l 1,15,-1
 407 84 l 1,16,-1
 407 369 l 1,17,-1
 513 369 l 1,18,-1
 513 84 l 1,19,-1
 770 84 l 1,12,-1
EndSplineSet
Colour: ff00ff
EndChar

StartChar: u1B166
Encoding: 110950 110950 7
Width: 1000
Flags: W
LayerCount: 2
Fore
SplineSet
199 522 m 1,0,-1
 752 522 l 1,1,-1
 752 500 l 2,2,3
 751 211 751 211 630 91 c 0,4,5
 522 -17 522 -17 287 -38 c 1,6,-1
 270 57 l 1,7,8
 412 71 412 71 489 113 c 128,-1,9
 566 155 566 155 602 233 c 1,10,-1
 232 233 l 1,11,-1
 232 326 l 1,12,-1
 630 326 l 1,13,14
 640 380 640 380 643 428 c 1,15,-1
 199 428 l 1,16,-1
 199 522 l 1,0,-1
EndSplineSet
Colour: ff00ff
EndChar

StartChar: u1B167
Encoding: 110951 110951 8
Width: 1000
Flags: W
LayerCount: 2
Fore
SplineSet
692 471 m 1,0,-1
 792 449 l 1,1,2
 734 119 734 119 444 18 c 0,3,4
 353 -13 353 -13 237 -24 c 1,5,-1
 221 78 l 1,6,7
 474 103 474 103 587 235 c 0,8,9
 662 322 662 322 692 471 c 1,0,-1
204 446 m 1,10,-1
 255 541 l 1,11,12
 353 496 353 496 485 420 c 1,13,-1
 433 328 l 1,14,15
 328 386 328 386 204 446 c 1,10,-1
EndSplineSet
Colour: ff00ff
EndChar

StartChar: uni3042_uni3099.ccmp
Encoding: 1114112 -1 9
Width: 1000
GlyphClass: 2
Flags: W
LayerCount: 2
Fore
SplineSet
297 300 m 1,0,1
 202 248 202 248 191 168 c 0,2,3
 190 162 190 162 190 155 c 0,4,5
 191 83 191 83 245 72 c 0,6,7
 257 70 257 70 263 70 c 0,8,9
 283 70 283 70 297 74 c 1,10,-1
 297 300 l 1,0,1
547 344 m 1,11,12
 513 346 513 346 506 346 c 0,13,14
 454 346 454 346 408 338 c 1,15,-1
 408 138 l 1,16,17
 496 218 496 218 547 344 c 1,11,12
115 622 m 1,18,-1
 297 622 l 1,19,-1
 297 725 l 1,20,-1
 408 725 l 1,21,-1
 408 622 l 1,22,-1
 675 622 l 1,23,24
 654 663 654 663 629 708 c 1,25,-1
 715 751 l 1,26,27
 757 673 757 673 782 622 c 1,28,-1
 793 622 l 1,29,-1
 793 525 l 1,30,-1
 408 525 l 1,31,-1
 408 443 l 1,32,33
 455 447 455 447 506 449 c 0,34,35
 708 448 708 448 790 337 c 0,36,37
 834 275 834 275 833 194 c 0,38,39
 832 63 832 63 723 -15 c 0,40,41
 659 -61 659 -61 570 -79 c 1,42,-1
 539 25 l 1,43,44
 650 50 650 50 696 120 c 0,45,46
 718 154 718 154 718 194 c 0,47,48
 715 279 715 279 651 316 c 1,49,50
 575 121 575 121 437 27 c 0,51,52
 346 -34 346 -34 251 -34 c 0,53,54
 148 -34 148 -34 101 41 c 0,55,56
 75 86 75 86 75 143 c 0,57,58
 76 276 76 276 188 360 c 0,59,60
 234 394 234 394 297 417 c 1,61,-1
 297 525 l 1,62,-1
 115 525 l 1,63,-1
 115 622 l 1,18,-1
924 628 m 1,64,-1
 837 586 l 1,65,66
 771 712 771 712 766 721 c 1,67,-1
 853 764 l 1,68,69
 901 677 901 677 924 628 c 1,64,-1
EndSplineSet
Colour: ff00ff
EndChar

StartChar: uni3044_uni3099.ccmp
Encoding: 1114113 -1 10
Width: 1000
GlyphClass: 2
Flags: W
LayerCount: 2
Fore
SplineSet
924 628 m 1,0,-1
 837 586 l 1,1,2
 771 712 771 712 766 721 c 1,3,-1
 853 764 l 1,4,5
 901 677 901 677 924 628 c 1,0,-1
257 615 m 1,6,7
 220 487 220 487 215 332 c 1,8,-1
 215 309 l 2,9,10
 215 181 215 181 264 107 c 0,11,12
 290 72 290 72 311 70 c 0,13,14
 340 70 340 70 386 142 c 0,15,16
 420 196 420 196 448 270 c 1,17,-1
 554 229 l 1,18,19
 496 63 496 63 398 -14 c 0,20,21
 346 -52 346 -52 302 -52 c 0,22,23
 235 -51 235 -51 176 27 c 0,24,25
 99 133 99 133 94 286 c 0,26,27
 93 294 93 294 93 309 c 0,28,29
 95 475 95 475 136 620 c 0,30,31
 138 626 138 626 138 629 c 1,32,-1
 257 615 l 1,6,7
732 592 m 1,33,34
 831 366 831 366 836 73 c 1,35,-1
 836 46 l 1,36,-1
 715 46 l 1,37,38
 715 314 715 314 623 547 c 0,39,40
 613 575 613 575 600 603 c 1,41,-1
 674 624 l 1,42,43
 653 664 653 664 629 708 c 1,44,-1
 715 751 l 1,45,46
 759 669 759 669 784 617 c 1,47,-1
 732 592 l 1,33,34
EndSplineSet
Colour: ff00ff
EndChar

StartChar: uni3046_uni309A.ccmp
Encoding: 1114114 -1 11
Width: 1000
Flags: W
LayerCount: 2
Fore
SplineSet
819 637 m 0,0,1
 818 676 818 676 786 690 c 0,2,3
 772 696 772 696 760 696 c 0,4,5
 721 695 721 695 707 663 c 0,6,7
 701 649 701 649 701 637 c 0,8,9
 702 598 702 598 734 584 c 0,10,11
 748 578 748 578 760 578 c 0,12,13
 798 579 798 579 813 611 c 0,14,15
 819 624 819 624 819 637 c 0,0,1
896 637 m 0,16,17
 895 568 895 568 843 529 c 0,18,19
 804 500 804 500 760 500 c 0,20,21
 692 500 692 500 652 554 c 0,22,23
 624 593 624 593 623 637 c 0,24,25
 622 703 622 703 677 745 c 0,26,27
 716 774 716 774 760 774 c 0,28,29
 828 774 828 774 868 720 c 0,30,31
 896 682 896 682 896 637 c 0,16,17
248 587 m 1,32,-1
 262 694 l 1,33,34
 443 669 443 669 616 665 c 1,35,-1
 614 556 l 1,36,37
 446 560 446 560 248 587 c 1,32,-1
121 403 m 1,38,39
 328 455 328 455 503 463 c 0,40,41
 516 464 516 464 536 464 c 0,42,43
 743 463 743 463 799 346 c 0,44,45
 814 312 814 312 816 266 c 0,46,47
 814 93 814 93 618 7 c 0,48,49
 495 -48 495 -48 306 -62 c 1,50,-1
 283 46 l 1,51,52
 624 81 624 81 684 209 c 0,53,54
 695 236 695 236 695 260 c 0,55,56
 692 355 692 355 531 354 c 0,57,58
 404 354 404 354 163 300 c 0,59,60
 160 299 160 299 153 298 c 0,61,62
 148 296 148 296 146 296 c 2,63,-1
 121 403 l 1,38,39
EndSplineSet
Colour: ff00ff
EndChar

StartChar: uni3048_uni3099.ccmp
Encoding: 1114115 -1 12
Width: 1000
GlyphClass: 2
Flags: W
LayerCount: 2
Fore
SplineSet
924 628 m 1,0,-1
 837 586 l 1,1,2
 771 712 771 712 766 721 c 1,3,-1
 853 764 l 1,4,5
 901 677 901 677 924 628 c 1,0,-1
784 617 m 1,6,-1
 698 576 l 1,7,8
 685 603 685 603 670 632 c 1,9,-1
 670 571 l 1,10,11
 473 570 473 570 232 603 c 1,12,-1
 246 707 l 1,13,14
 455 678 455 678 647 676 c 1,15,16
 638 692 638 692 629 708 c 1,17,-1
 715 751 l 1,18,19
 759 669 759 669 784 617 c 1,6,-1
147 498 m 1,20,-1
 735 498 l 1,21,-1
 735 379 l 1,22,-1
 543 236 l 1,23,-1
 544 234 l 1,24,-1
 547 234 l 2,25,26
 583 232 583 232 602 179 c 0,27,28
 604 173 604 173 608 161 c 0,29,30
 612 146 612 146 615 138 c 0,31,32
 629 83 629 83 649 70 c 0,33,34
 665 61 665 61 702 61 c 0,35,36
 759 61 759 61 811 76 c 1,37,-1
 831 -27 l 1,38,39
 760 -45 760 -45 691 -45 c 0,40,41
 581 -44 581 -44 540 6 c 0,42,43
 521 33 521 33 511 69 c 0,44,45
 491 146 491 146 466 154 c 0,46,47
 462 155 462 155 457 155 c 0,48,49
 440 154 440 154 409 135 c 0,50,51
 368 109 368 109 148 -54 c 1,52,-1
 82 36 l 1,53,-1
 570 393 l 1,54,-1
 570 394 l 1,55,-1
 147 394 l 1,56,-1
 147 498 l 1,20,-1
EndSplineSet
Colour: ff00ff
EndChar

StartChar: uni304A_uni3099.ccmp
Encoding: 1114116 -1 13
Width: 1000
GlyphClass: 2
Flags: W
LayerCount: 2
Fore
SplineSet
924 628 m 1,0,-1
 837 586 l 1,1,2
 771 712 771 712 766 721 c 1,3,-1
 853 764 l 1,4,5
 901 677 901 677 924 628 c 1,0,-1
784 617 m 1,6,-1
 698 576 l 1,7,8
 668 638 668 638 629 708 c 1,9,-1
 715 751 l 1,10,11
 759 669 759 669 784 617 c 1,6,-1
318 274 m 1,12,13
 205 242 205 242 185 174 c 0,14,15
 181 161 181 161 181 148 c 0,16,17
 182 104 182 104 222 75 c 0,18,19
 248 59 248 59 272 57 c 0,20,21
 306 58 306 58 314 80 c 0,22,23
 318 90 318 90 318 109 c 2,24,-1
 318 274 l 1,12,13
777 603 m 1,25,26
 839 518 839 518 884 441 c 1,27,-1
 799 390 l 1,28,29
 753 466 753 466 698 543 c 1,30,-1
 777 603 l 1,25,26
105 613 m 1,31,-1
 318 613 l 1,32,-1
 318 725 l 1,33,-1
 433 725 l 1,34,-1
 433 613 l 1,35,-1
 633 613 l 1,36,-1
 633 516 l 1,37,-1
 433 516 l 1,38,-1
 433 401 l 1,39,40
 479 403 479 403 488 403 c 0,41,42
 642 402 642 402 727 322 c 0,43,44
 788 263 788 263 788 188 c 0,45,46
 786 -9 786 -9 571 -51 c 0,47,48
 547 -56 547 -56 527 -57 c 1,49,-1
 502 46 l 1,50,51
 646 65 646 65 666 148 c 0,52,53
 670 163 670 163 670 182 c 0,54,55
 669 234 669 234 610 267 c 0,56,57
 560 294 560 294 488 294 c 0,58,59
 477 294 477 294 433 292 c 1,60,-1
 433 103 l 2,61,62
 432 6 432 6 387 -24 c 0,63,64
 351 -45 351 -45 284 -45 c 0,65,66
 184 -44 184 -44 119 20 c 0,67,68
 65 76 65 76 65 148 c 0,69,70
 66 248 66 248 163 319 c 0,71,72
 228 364 228 364 318 385 c 1,73,-1
 318 516 l 1,74,-1
 105 516 l 1,75,-1
 105 613 l 1,31,-1
EndSplineSet
Colour: ff00ff
EndChar

StartChar: uni3055_uni309A.ccmp
Encoding: 1114117 -1 14
Width: 1000
Flags: W
LayerCount: 2
Fore
SplineSet
846 633 m 0,0,1
 845 672 845 672 813 686 c 0,2,3
 799 692 799 692 787 692 c 0,4,5
 748 691 748 691 734 659 c 0,6,7
 728 645 728 645 728 633 c 0,8,9
 729 594 729 594 761 580 c 0,10,11
 775 574 775 574 787 574 c 0,12,13
 803 574 803 574 815 580 c 1,14,-1
 827 595 l 1,15,-1
 828 606 l 1,16,-1
 829 606 l 1,17,-1
 830 606 l 1,18,-1
 831 606 l 1,19,-1
 832 606 l 1,20,-1
 834 606 l 1,21,-1
 836 602 l 1,22,-1
 835 603 l 1,23,-1
 824 586 l 1,24,25
 831 592 831 592 836 600 c 0,26,27
 836 600 836 600 836 602 c 1,28,-1
 837 601 l 1,29,30
 839 604 839 604 840 607 c 0,31,32
 846 620 846 620 846 633 c 0,0,1
923 633 m 0,33,34
 922 564 922 564 870 525 c 0,35,36
 831 496 831 496 787 496 c 2,37,-1
 626 494 l 1,38,39
 654 386 654 386 728 272 c 1,40,-1
 618 217 l 1,41,42
 518 283 518 283 408 282 c 0,43,44
 309 281 309 281 278 223 c 0,45,46
 268 204 268 204 268 179 c 0,47,48
 270 70 270 70 430 52 c 0,49,50
 465 48 465 48 493 48 c 0,51,52
 596 48 596 48 714 73 c 1,53,-1
 733 -30 l 1,54,55
 619 -55 619 -55 493 -55 c 0,56,57
 248 -54 248 -54 175 73 c 0,58,59
 147 122 147 122 147 185 c 0,60,61
 148 296 148 296 240 348 c 0,62,63
 306 385 306 385 402 385 c 0,64,65
 482 385 482 385 558 355 c 1,66,-1
 559 356 l 1,67,68
 531 413 531 413 511 490 c 1,69,70
 270 484 270 484 100 484 c 1,71,-1
 100 588 l 1,72,73
 273 588 273 588 492 593 c 1,74,75
 485 641 485 641 481 715 c 1,76,-1
 595 723 l 1,77,78
 599 641 599 641 606 596 c 1,79,80
 612 596 612 596 628 597 c 0,81,82
 642 598 642 598 650 598 c 0,83,84
 653 598 653 598 655 598 c 1,85,86
 650 615 650 615 650 633 c 0,87,88
 649 699 649 699 704 741 c 0,89,90
 743 770 743 770 787 770 c 0,91,92
 855 770 855 770 895 716 c 0,93,94
 923 678 923 678 923 633 c 0,33,34
EndSplineSet
Colour: ff00ff
EndChar

StartChar: uni305B_uni309A.ccmp
Encoding: 1114118 -1 15
Width: 1000
Flags: W
LayerCount: 2
Fore
SplineSet
856 638 m 0,0,1
 855 677 855 677 823 691 c 0,2,3
 809 697 809 697 797 697 c 0,4,5
 758 696 758 696 744 664 c 0,6,7
 738 650 738 650 738 638 c 0,8,9
 739 599 739 599 771 585 c 0,10,11
 785 579 785 579 797 579 c 0,12,13
 835 580 835 580 850 612 c 0,14,15
 856 625 856 625 856 638 c 0,0,1
933 638 m 0,16,17
 932 569 932 569 880 530 c 0,18,19
 869 521 869 521 857 515 c 1,20,-1
 858 448 l 1,21,22
 848 447 848 447 699 441 c 1,23,-1
 699 303 l 2,24,25
 699 210 699 210 656 188 c 0,26,27
 631 175 631 175 594 176 c 0,28,29
 554 176 554 176 429 201 c 0,30,31
 424 202 424 202 415 205 c 0,32,33
 405 208 405 208 401 209 c 1,34,-1
 424 315 l 1,35,36
 520 289 520 289 563 289 c 0,37,38
 582 289 582 289 584 298 c 0,39,40
 587 307 587 307 587 335 c 2,41,-1
 587 438 l 1,42,43
 557 437 557 437 311 431 c 1,44,-1
 311 173 l 2,45,46
 311 102 311 102 335 80 c 0,47,48
 366 52 366 52 462 52 c 2,49,-1
 493 52 l 2,50,51
 625 52 625 52 754 70 c 1,52,-1
 764 -36 l 1,53,54
 633 -54 633 -54 493 -55 c 0,55,56
 321 -56 321 -56 262 -15 c 0,57,58
 204 25 204 25 198 120 c 0,59,60
 196 152 196 152 196 173 c 2,61,-1
 196 430 l 1,62,-1
 67 430 l 1,63,-1
 67 532 l 1,64,-1
 130 532 l 2,65,66
 160 533 160 533 196 533 c 1,67,-1
 196 698 l 1,68,-1
 311 698 l 1,69,-1
 311 534 l 1,70,71
 555 540 555 540 587 541 c 1,72,-1
 587 719 l 1,73,-1
 686 719 l 1,74,75
 697 734 697 734 714 746 c 0,76,77
 753 775 753 775 797 775 c 0,78,79
 865 775 865 775 905 721 c 0,80,81
 933 683 933 683 933 638 c 0,16,17
EndSplineSet
Colour: ff00ff
EndChar

StartChar: uni3063_uni309A.ccmp
Encoding: 1114119 -1 16
Width: 1000
Flags: W
LayerCount: 2
Fore
SplineSet
811 583 m 0,0,1
 810 622 810 622 778 636 c 0,2,3
 764 642 764 642 752 642 c 0,4,5
 713 641 713 641 699 609 c 0,6,7
 693 595 693 595 693 583 c 0,8,9
 694 544 694 544 726 530 c 0,10,11
 740 524 740 524 752 524 c 0,12,13
 790 525 790 525 805 557 c 0,14,15
 811 570 811 570 811 583 c 0,0,1
888 583 m 0,16,17
 887 514 887 514 835 475 c 0,18,19
 796 446 796 446 752 446 c 0,20,21
 684 446 684 446 644 500 c 0,22,23
 616 539 616 539 615 583 c 0,24,25
 614 649 614 649 669 691 c 0,26,27
 708 720 708 720 752 720 c 0,28,29
 820 720 820 720 860 666 c 0,30,31
 888 628 888 628 888 583 c 0,16,17
133 452 m 1,32,33
 356 505 356 505 468 505 c 0,34,35
 747 502 747 502 749 271 c 0,36,37
 747 -13 747 -13 301 -24 c 1,38,-1
 270 -24 l 1,39,-1
 262 80 l 1,40,41
 554 81 554 81 613 187 c 0,42,43
 631 221 631 221 631 263 c 0,44,45
 630 366 630 366 537 390 c 0,46,47
 502 397 502 397 457 399 c 0,48,49
 371 399 371 399 155 349 c 1,50,-1
 133 452 l 1,32,33
EndSplineSet
Colour: ff00ff
EndChar

StartChar: uni3064_uni309A.ccmp
Encoding: 1114120 -1 17
Width: 1000
Flags: W
LayerCount: 2
Fore
SplineSet
832 624 m 0,0,1
 831 663 831 663 799 677 c 0,2,3
 785 683 785 683 773 683 c 0,4,5
 734 682 734 682 720 650 c 0,6,7
 714 636 714 636 714 624 c 0,8,9
 715 585 715 585 747 571 c 0,10,11
 761 565 761 565 773 565 c 0,12,13
 811 566 811 566 826 598 c 0,14,15
 832 611 832 611 832 624 c 0,0,1
909 624 m 0,16,17
 908 555 908 555 856 516 c 0,18,19
 835 500 835 500 812 493 c 1,20,21
 852 428 852 428 852 330 c 0,22,23
 850 -16 850 -16 313 -33 c 0,24,25
 294 -34 294 -34 258 -34 c 1,26,-1
 249 81 l 1,27,28
 604 82 604 82 690 206 c 0,29,30
 722 254 722 254 722 318 c 0,31,32
 721 453 721 453 607 488 c 0,33,34
 560 503 560 503 491 503 c 0,35,36
 372 503 372 503 113 439 c 1,37,-1
 87 555 l 1,38,39
 364 621 364 621 504 621 c 0,40,41
 579 621 579 621 637 607 c 1,42,43
 636 615 636 615 636 624 c 0,44,45
 635 690 635 690 690 732 c 0,46,47
 729 761 729 761 773 761 c 0,48,49
 841 761 841 761 881 707 c 0,50,51
 909 669 909 669 909 624 c 0,16,17
EndSplineSet
Colour: ff00ff
EndChar

StartChar: uni3068_uni309A.ccmp
Encoding: 1114121 -1 18
Width: 1000
Flags: W
LayerCount: 2
Fore
SplineSet
790 633 m 0,0,1
 789 672 789 672 757 686 c 0,2,3
 743 692 743 692 731 692 c 0,4,5
 692 691 692 691 678 659 c 0,6,7
 672 645 672 645 672 633 c 0,8,9
 673 594 673 594 705 580 c 0,10,11
 719 574 719 574 731 574 c 0,12,13
 769 575 769 575 784 607 c 0,14,15
 790 620 790 620 790 633 c 0,0,1
867 633 m 0,16,17
 866 564 866 564 814 525 c 0,18,19
 785 504 785 504 754 498 c 1,20,-1
 773 407 l 1,21,22
 375 317 375 317 289 226 c 0,23,24
 260 193 260 193 260 157 c 0,25,26
 262 73 262 73 396 58 c 0,27,28
 431 54 431 54 472 55 c 0,29,30
 606 55 606 55 766 79 c 1,31,-1
 778 -30 l 1,32,33
 623 -55 623 -55 472 -55 c 0,34,35
 142 -54 142 -54 132 147 c 1,36,-1
 132 157 l 2,37,38
 135 277 135 277 285 362 c 1,39,40
 243 531 243 531 217 688 c 1,41,-1
 342 707 l 1,42,43
 368 550 368 550 402 416 c 1,44,45
 514 460 514 460 689 502 c 1,46,47
 650 514 650 514 623 550 c 0,48,49
 595 589 595 589 594 633 c 0,50,51
 593 699 593 699 648 741 c 0,52,53
 687 770 687 770 731 770 c 0,54,55
 799 770 799 770 839 716 c 0,56,57
 867 678 867 678 867 633 c 0,16,17
EndSplineSet
Colour: ff00ff
EndChar

StartChar: uni3089_uni309A.ccmp
Encoding: 1114122 -1 19
Width: 1000
Flags: W
LayerCount: 2
Fore
SplineSet
818 636 m 0,0,1
 817 675 817 675 785 689 c 0,2,3
 771 695 771 695 759 695 c 0,4,5
 720 694 720 694 706 662 c 0,6,7
 700 648 700 648 700 636 c 0,8,9
 701 597 701 597 733 583 c 0,10,11
 747 577 747 577 759 577 c 0,12,13
 797 578 797 578 812 610 c 0,14,15
 818 623 818 623 818 636 c 0,0,1
895 636 m 0,16,17
 894 567 894 567 842 528 c 0,18,19
 803 499 803 499 759 499 c 0,20,21
 696 499 696 499 657 545 c 1,22,23
 450 547 450 547 254 573 c 1,24,-1
 267 676 l 1,25,26
 441 655 441 655 622 649 c 1,27,28
 626 706 626 706 676 744 c 0,29,30
 715 773 715 773 759 773 c 0,31,32
 827 773 827 773 867 719 c 0,33,34
 895 681 895 681 895 636 c 0,16,17
185 503 m 1,35,-1
 303 494 l 1,36,37
 298 444 298 444 278 320 c 1,38,-1
 280 319 l 1,39,40
 385 392 385 392 508 406 c 0,41,42
 531 409 531 409 552 409 c 0,43,44
 770 408 770 408 808 265 c 0,45,46
 816 229 816 229 816 193 c 0,47,48
 816 38 816 38 657 -23 c 0,49,50
 560 -62 560 -62 418 -62 c 0,51,52
 311 -62 311 -62 209 -50 c 1,53,-1
 217 55 l 1,54,55
 355 41 355 41 418 41 c 0,56,57
 607 42 607 42 661 129 c 0,58,59
 679 158 679 158 679 193 c 0,60,61
 676 303 676 303 534 305 c 0,62,63
 423 304 423 304 273 211 c 0,64,65
 263 205 263 205 248 194 c 1,66,-1
 140 218 l 1,67,68
 167 374 167 374 185 503 c 1,35,-1
EndSplineSet
Colour: ff00ff
EndChar

StartChar: uni308A_uni309A.ccmp
Encoding: 1114123 -1 20
Width: 1000
Flags: W
LayerCount: 2
Fore
SplineSet
824 636 m 0,0,1
 823 675 823 675 791 689 c 0,2,3
 777 695 777 695 765 695 c 0,4,5
 726 694 726 694 712 662 c 0,6,7
 706 648 706 648 706 636 c 0,8,9
 707 597 707 597 739 583 c 0,10,11
 753 577 753 577 765 577 c 0,12,13
 803 578 803 578 818 610 c 0,14,15
 824 623 824 623 824 636 c 0,0,1
901 636 m 0,16,17
 900 567 900 567 848 528 c 0,18,19
 814 503 814 503 777 500 c 1,20,21
 798 438 798 438 798 360 c 0,22,23
 798 102 798 102 624 3 c 0,24,25
 496 -68 496 -68 270 -68 c 1,26,-1
 263 41 l 1,27,28
 502 42 502 42 593 126 c 0,29,30
 670 201 670 201 670 360 c 0,31,32
 669 529 669 529 562 545 c 0,33,34
 553 546 553 546 543 545 c 0,35,36
 458 545 458 545 384 464 c 0,37,38
 298 368 298 368 291 227 c 1,39,-1
 291 217 l 1,40,-1
 176 218 l 1,41,-1
 176 678 l 1,42,-1
 294 678 l 1,43,-1
 294 500 l 1,44,-1
 295 500 l 1,45,46
 392 653 392 653 544 660 c 1,47,-1
 555 660 l 2,48,49
 595 660 595 660 628 650 c 1,50,51
 633 706 633 706 682 744 c 0,52,53
 721 773 721 773 765 773 c 0,54,55
 833 773 833 773 873 719 c 0,56,57
 901 681 901 681 901 636 c 0,16,17
EndSplineSet
Colour: ff00ff
EndChar

StartChar: uni308B_uni309A.ccmp
Encoding: 1114124 -1 21
Width: 1000
Flags: W
LayerCount: 2
Fore
SplineSet
822 634 m 0,0,1
 821 673 821 673 789 687 c 0,2,3
 775 693 775 693 763 693 c 0,4,5
 724 692 724 692 710 660 c 0,6,7
 704 646 704 646 704 634 c 0,8,9
 705 595 705 595 737 581 c 0,10,11
 751 575 751 575 763 575 c 0,12,13
 801 576 801 576 816 608 c 0,14,15
 822 621 822 621 822 634 c 0,0,1
899 634 m 0,16,17
 898 565 898 565 846 526 c 0,18,19
 807 497 807 497 763 497 c 0,20,21
 713 497 713 497 678 526 c 1,22,-1
 447 398 l 1,23,-1
 448 397 l 1,24,25
 510 409 510 409 559 409 c 0,26,27
 766 408 766 408 812 276 c 0,28,29
 823 244 823 244 823 202 c 0,30,31
 822 34 822 34 675 -30 c 0,32,33
 588 -68 588 -68 463 -68 c 0,34,35
 211 -67 211 -67 194 70 c 0,36,37
 192 86 192 86 192 93 c 0,38,39
 193 162 193 162 262 202 c 0,40,41
 320 236 320 236 408 236 c 0,42,43
 591 235 591 235 603 126 c 0,44,45
 605 108 605 108 605 100 c 0,46,47
 603 71 603 71 598 50 c 1,48,49
 696 91 696 91 696 191 c 0,50,51
 696 294 696 294 574 313 c 0,52,53
 542 318 542 318 511 318 c 0,54,55
 357 318 357 318 210 254 c 0,56,57
 175 239 175 239 145 224 c 1,58,-1
 103 308 l 1,59,-1
 528 565 l 1,60,-1
 528 566 l 1,61,-1
 165 566 l 1,62,-1
 165 666 l 1,63,-1
 629 666 l 1,64,65
 639 711 639 711 680 742 c 0,66,67
 719 771 719 771 763 771 c 0,68,69
 831 771 831 771 871 717 c 0,70,71
 899 679 899 679 899 634 c 0,16,17
486 30 m 1,72,73
 500 63 500 63 502 87 c 0,74,75
 502 132 502 132 448 141 c 0,76,77
 430 145 430 145 402 145 c 0,78,79
 328 144 328 144 311 108 c 0,80,81
 308 100 308 100 308 93 c 0,82,83
 311 30 311 30 463 30 c 2,84,-1
 475 30 l 1,85,-1
 486 30 l 1,72,73
EndSplineSet
Colour: ff00ff
EndChar

StartChar: uni308C_uni309A.ccmp
Encoding: 1114125 -1 22
Width: 1000
Flags: W
LayerCount: 2
Fore
SplineSet
821 633 m 0,0,1
 820 672 820 672 788 686 c 0,2,3
 774 692 774 692 762 692 c 0,4,5
 723 691 723 691 709 659 c 0,6,7
 703 645 703 645 703 633 c 0,8,9
 704 594 704 594 736 580 c 0,10,11
 750 574 750 574 762 574 c 0,12,13
 800 575 800 575 815 607 c 0,14,15
 821 620 821 620 821 633 c 0,0,1
898 633 m 0,16,17
 897 564 897 564 845 525 c 0,18,19
 806 496 806 496 762 496 c 0,20,21
 749 496 749 496 737 498 c 1,22,23
 743 462 743 462 743 412 c 0,24,25
 743 360 743 360 731 293 c 0,26,27
 718 219 718 219 718 175 c 0,28,29
 720 89 720 89 752 87 c 1,30,31
 784 90 784 90 853 156 c 1,32,-1
 912 73 l 1,33,34
 838 -7 838 -7 757 -29 c 0,35,36
 733 -34 733 -34 718 -34 c 0,37,38
 641 -33 641 -33 615 33 c 0,39,40
 599 80 599 80 597 163 c 0,41,42
 597 212 597 212 609 282 c 0,43,44
 622 353 622 353 622 400 c 0,45,46
 617 485 617 485 588 487 c 0,47,48
 558 486 558 486 429 369 c 0,49,50
 421 362 421 362 406 347 c 0,51,52
 388 331 388 331 379 323 c 1,53,-1
 379 -77 l 1,54,-1
 263 -77 l 1,55,-1
 263 212 l 1,56,57
 234 184 234 184 123 73 c 1,58,-1
 46 150 l 1,59,60
 236 340 236 340 263 365 c 1,61,-1
 263 469 l 1,62,-1
 67 469 l 1,63,-1
 67 573 l 1,64,-1
 263 573 l 1,65,-1
 263 709 l 1,66,-1
 379 709 l 1,67,-1
 379 473 l 1,68,69
 504 582 504 582 568 602 c 0,70,71
 591 609 591 609 618 609 c 0,72,73
 623 609 623 609 628 609 c 1,74,75
 626 621 626 621 625 633 c 0,76,77
 624 699 624 699 679 741 c 0,78,79
 718 770 718 770 762 770 c 0,80,81
 830 770 830 770 870 716 c 0,82,83
 898 678 898 678 898 633 c 0,16,17
EndSplineSet
Colour: ff00ff
EndChar

StartChar: uni308D_uni309A.ccmp
Encoding: 1114126 -1 23
Width: 1000
Flags: W
LayerCount: 2
Fore
SplineSet
822 634 m 0,0,1
 821 673 821 673 789 687 c 0,2,3
 775 693 775 693 763 693 c 0,4,5
 724 692 724 692 710 660 c 0,6,7
 704 646 704 646 704 634 c 0,8,9
 705 595 705 595 737 581 c 0,10,11
 751 575 751 575 763 575 c 0,12,13
 801 576 801 576 816 608 c 0,14,15
 822 621 822 621 822 634 c 0,0,1
899 634 m 0,16,17
 898 565 898 565 846 526 c 0,18,19
 807 497 807 497 763 497 c 0,20,21
 714 497 714 497 679 526 c 1,22,-1
 432 386 l 1,23,-1
 433 385 l 1,24,25
 499 400 499 400 547 400 c 0,26,27
 787 399 787 399 815 240 c 0,28,29
 818 223 818 223 818 205 c 0,30,31
 818 18 818 18 620 -35 c 0,32,33
 544 -55 544 -55 450 -55 c 0,34,35
 346 -55 346 -55 251 -45 c 1,36,-1
 249 64 l 1,37,38
 337 54 337 54 441 54 c 0,39,40
 684 56 684 56 684 195 c 0,41,42
 684 277 684 277 591 299 c 0,43,44
 557 307 557 307 499 307 c 0,45,46
 337 305 337 305 140 203 c 1,47,-1
 97 287 l 1,48,-1
 519 559 l 1,49,-1
 519 560 l 1,50,-1
 174 560 l 1,51,-1
 174 660 l 1,52,-1
 628 660 l 1,53,54
 636 709 636 709 680 742 c 0,55,56
 719 771 719 771 763 771 c 0,57,58
 831 771 831 771 871 717 c 0,59,60
 899 679 899 679 899 634 c 0,16,17
EndSplineSet
Colour: ff00ff
EndChar

StartChar: uni308F_uni3099.ccmp
Encoding: 1114127 -1 24
Width: 1000
Flags: W
LayerCount: 2
Fore
SplineSet
933 638 m 1,0,-1
 846 596 l 1,1,2
 780 722 780 722 775 731 c 1,3,-1
 862 774 l 1,4,5
 910 687 910 687 933 638 c 1,0,-1
242 239 m 1,6,7
 163 150 163 150 120 98 c 1,8,-1
 39 172 l 1,9,10
 154 310 154 310 242 400 c 1,11,-1
 242 482 l 1,12,-1
 63 482 l 1,13,-1
 63 580 l 1,14,-1
 242 580 l 1,15,-1
 242 713 l 1,16,-1
 351 713 l 1,17,-1
 351 503 l 1,18,19
 472 604 472 604 572 615 c 0,20,21
 582 616 582 616 600 616 c 0,22,23
 658 616 658 616 701 599 c 1,24,25
 673 655 673 655 638 718 c 1,26,-1
 724 761 l 1,27,28
 768 679 768 679 793 627 c 1,29,-1
 718 591 l 1,30,31
 775 563 775 563 803 502 c 0,32,33
 838 425 838 425 839 289 c 0,34,35
 839 97 839 97 728 16 c 0,36,37
 664 -28 664 -28 581 -27 c 0,38,39
 498 -27 498 -27 431 9 c 1,40,-1
 468 112 l 1,41,42
 531 85 531 85 581 85 c 0,43,44
 687 87 687 87 713 209 c 0,45,46
 719 239 719 239 721 289 c 0,47,48
 721 439 721 439 675 479 c 0,49,50
 646 504 646 504 593 503 c 0,51,52
 520 503 520 503 416 413 c 0,53,54
 382 384 382 384 351 353 c 1,55,-1
 351 -66 l 1,56,-1
 242 -66 l 1,57,-1
 242 239 l 1,6,7
EndSplineSet
Colour: ff00ff
EndChar

StartChar: uni3090_uni3099.ccmp
Encoding: 1114128 -1 25
Width: 1000
Flags: W
LayerCount: 2
Fore
SplineSet
163 598 m 1,0,-1
 163 692 l 1,1,-1
 566 692 l 1,2,-1
 566 598 l 2,3,4
 564 593 564 593 558 570 c 0,5,6
 551 541 551 541 546 522 c 1,7,8
 708 504 708 504 789 396 c 0,9,10
 845 320 845 320 845 221 c 0,11,12
 844 55 844 55 756 -22 c 0,13,14
 702 -67 702 -67 636 -66 c 0,15,16
 541 -65 541 -65 496 -3 c 0,17,18
 471 35 471 35 469 85 c 0,19,20
 469 165 469 165 532 208 c 0,21,22
 577 237 577 237 630 237 c 0,23,24
 688 235 688 235 736 200 c 1,25,-1
 736 221 l 2,26,27
 735 327 735 327 644 383 c 0,28,29
 593 413 593 413 517 421 c 1,30,31
 415 80 415 80 326 -5 c 0,32,33
 286 -41 286 -41 236 -43 c 0,34,35
 153 -42 153 -42 103 28 c 0,36,37
 63 87 63 87 63 170 c 0,38,39
 64 321 64 321 175 421 c 0,40,41
 276 508 276 508 428 522 c 1,42,-1
 447 598 l 1,43,-1
 163 598 l 1,0,-1
718 97 m 1,44,45
 678 137 678 137 636 139 c 0,46,47
 589 138 589 138 575 105 c 0,48,49
 572 97 572 97 572 88 c 0,50,51
 572 47 572 47 614 37 c 0,52,53
 625 34 625 34 636 34 c 0,54,55
 692 37 692 37 718 97 c 1,44,45
398 413 m 1,56,57
 265 387 265 387 206 291 c 0,58,59
 172 236 172 236 172 170 c 0,60,61
 173 103 173 103 206 78 c 0,62,63
 219 70 219 70 229 70 c 0,64,65
 261 72 261 72 310 173 c 0,66,67
 356 273 356 273 398 413 c 1,56,57
756 607 m 5,68,-1
 670 566 l 5,69,70
 640 628 640 628 601 698 c 5,71,-1
 687 741 l 5,72,73
 731 659 731 659 756 607 c 5,68,-1
896 618 m 5,74,-1
 809 576 l 5,75,76
 743 702 743 702 738 711 c 5,77,-1
 825 754 l 5,78,79
 873 667 873 667 896 618 c 5,74,-1
EndSplineSet
Colour: ff00ff
EndChar

StartChar: uni3091_uni3099.ccmp
Encoding: 1114129 -1 26
Width: 1000
Flags: W
LayerCount: 2
Fore
SplineSet
915 620 m 1,0,-1
 828 578 l 1,1,2
 762 704 762 704 757 713 c 1,3,-1
 844 756 l 1,4,5
 892 669 892 669 915 620 c 1,0,-1
775 609 m 1,6,-1
 689 568 l 1,7,8
 685 576 685 576 681 583 c 1,9,-1
 502 531 l 1,10,-1
 503 529 l 1,11,12
 567 537 567 537 597 537 c 0,13,14
 742 536 742 536 791 461 c 0,15,16
 812 429 812 429 812 389 c 0,17,18
 810 258 810 258 637 212 c 0,19,20
 547 188 547 188 418 188 c 2,21,-1
 386 188 l 1,22,23
 342 162 342 162 301 127 c 1,24,-1
 302 126 l 1,25,26
 337 138 337 138 360 138 c 0,27,28
 396 138 396 138 438 96 c 0,29,30
 442 92 442 92 445 87 c 0,31,32
 475 49 475 49 498 43 c 0,33,34
 502 42 502 42 506 42 c 0,35,36
 538 43 538 43 562 67 c 0,37,38
 576 81 576 81 592 100 c 1,39,-1
 654 26 l 1,40,41
 601 -46 601 -46 532 -59 c 0,42,43
 521 -61 521 -61 509 -61 c 0,44,45
 440 -61 440 -61 398 -16 c 1,46,-1
 384 2 l 2,47,48
 355 39 355 39 330 44 c 0,49,50
 318 46 318 46 311 46 c 0,51,52
 245 45 245 45 175 -25 c 0,53,54
 157 -43 157 -43 144 -60 c 1,55,-1
 51 -1 l 1,56,57
 153 124 153 124 257 203 c 1,58,59
 132 234 132 234 133 312 c 0,60,61
 133 358 133 358 194 390 c 0,62,63
 252 421 252 421 338 421 c 0,64,65
 532 419 532 419 533 319 c 0,66,67
 533 299 533 299 526 285 c 1,68,69
 694 305 694 305 693 382 c 0,70,71
 693 427 693 427 631 444 c 0,72,73
 577 458 577 458 481 458 c 0,74,75
 315 458 315 458 112 403 c 1,76,-1
 85 485 l 1,77,-1
 465 594 l 1,78,-1
 465 596 l 1,79,-1
 169 596 l 1,80,-1
 169 689 l 1,81,-1
 626 689 l 1,82,83
 623 694 623 694 620 700 c 1,84,-1
 706 743 l 1,85,86
 750 661 750 661 775 609 c 1,6,-1
383 279 m 1,87,88
 418 301 418 301 420 316 c 0,89,90
 417 343 417 343 338 343 c 0,91,92
 262 342 262 342 249 319 c 0,93,94
 247 313 247 313 247 312 c 0,95,96
 249 291 249 291 297 285 c 0,97,98
 330 280 330 280 383 279 c 1,87,88
622 147 m 1,99,-1
 717 190 l 1,100,101
 796 86 796 86 857 -23 c 1,102,-1
 758 -59 l 1,103,104
 707 33 707 33 622 147 c 1,99,-1
EndSplineSet
Colour: ff00ff
EndChar

StartChar: uni3092_uni3099.ccmp
Encoding: 1114130 -1 27
Width: 1000
Flags: W
LayerCount: 2
Fore
SplineSet
894 603 m 1,0,-1
 807 561 l 1,1,2
 741 687 741 687 736 696 c 1,3,-1
 823 739 l 1,4,5
 871 652 871 652 894 603 c 1,0,-1
754 592 m 1,6,-1
 668 551 l 1,7,8
 664 560 664 560 659 569 c 1,9,-1
 659 534 l 1,10,-1
 355 534 l 1,11,12
 344 508 344 508 320 458 c 1,13,-1
 321 456 l 1,14,15
 372 476 372 476 415 476 c 0,16,17
 516 475 516 475 575 377 c 0,18,19
 578 372 578 372 580 367 c 1,20,21
 687 389 687 389 772 398 c 1,22,-1
 782 298 l 1,23,24
 707 289 707 289 603 269 c 1,25,26
 611 203 611 203 611 127 c 1,27,-1
 490 127 l 1,28,29
 490 197 490 197 487 238 c 1,30,31
 348 191 348 191 334 135 c 0,32,33
 333 131 333 131 333 125 c 0,34,35
 335 79 335 79 383 62 c 0,36,37
 431 46 431 46 533 46 c 0,38,39
 627 46 627 46 760 67 c 1,40,-1
 770 -36 l 1,41,42
 651 -55 651 -55 533 -55 c 0,43,44
 286 -54 286 -54 231 35 c 0,45,46
 211 68 211 68 211 112 c 0,47,48
 213 231 213 231 393 310 c 0,49,50
 427 325 427 325 465 337 c 1,51,52
 441 382 441 382 388 381 c 0,53,54
 291 378 291 378 159 197 c 1,55,-1
 64 254 l 1,56,57
 168 399 168 399 230 534 c 1,58,-1
 75 534 l 1,59,-1
 75 631 l 1,60,-1
 270 631 l 1,61,62
 286 674 286 674 306 732 c 1,63,-1
 423 710 l 1,64,65
 420 702 420 702 413 684 c 0,66,67
 401 650 401 650 394 631 c 1,68,-1
 627 631 l 1,69,70
 613 656 613 656 599 683 c 1,71,-1
 685 726 l 1,72,73
 729 644 729 644 754 592 c 1,6,-1
EndSplineSet
Colour: ff00ff
EndChar

StartChar: uni3093_uni3099.ccmp
Encoding: 1114131 -1 28
Width: 1000
Flags: W
LayerCount: 2
Fore
SplineSet
487 691 m 1,0,1
 413 510 413 510 360 370 c 1,2,-1
 362 369 l 1,3,4
 408 403 408 403 453 403 c 0,5,6
 536 403 536 403 570 316 c 0,7,8
 587 270 587 270 596 207 c 0,9,10
 613 90 613 90 643 75 c 0,11,12
 651 72 651 72 657 72 c 0,13,14
 718 74 718 74 773 281 c 0,15,16
 774 283 774 283 774 283 c 1,17,-1
 878 254 l 1,18,19
 820 35 820 35 736 -17 c 0,20,21
 700 -39 700 -39 654 -39 c 0,22,23
 568 -38 568 -38 529 32 c 0,24,25
 503 84 503 84 488 168 c 0,26,27
 468 284 468 284 433 292 c 0,28,29
 429 293 429 293 426 293 c 0,30,31
 367 291 367 291 300 175 c 0,32,33
 251 88 251 88 193 -53 c 1,34,-1
 87 -14 l 1,35,36
 195 263 195 263 378 723 c 1,37,-1
 487 691 l 1,0,1
672 522 m 5,38,-1
 569 473 l 5,39,40
 526 557 526 557 484 631 c 5,41,-1
 587 682 l 5,42,43
 634 596 634 596 672 522 c 5,38,-1
833 555 m 5,44,-1
 728 505 l 5,45,46
 704 552 704 552 642 666 c 5,47,-1
 746 719 l 5,48,49
 800 620 800 620 833 555 c 5,44,-1
EndSplineSet
Colour: ff00ff
EndChar

StartChar: uni30A2_uni3099.ccmp
Encoding: 1114132 -1 29
Width: 1000
GlyphClass: 2
Flags: W
LayerCount: 2
Fore
SplineSet
338 473 m 1,0,-1
 460 473 l 1,1,2
 460 232 460 232 401 117 c 0,3,4
 351 22 351 22 231 -40 c 0,5,6
 220 -45 220 -45 209 -51 c 1,7,-1
 146 47 l 1,8,9
 246 95 246 95 287 167 c 0,10,11
 336 253 336 253 338 452 c 2,12,-1
 338 473 l 1,0,-1
102 546 m 1,13,-1
 102 653 l 1,14,-1
 659 653 l 1,15,16
 645 680 645 680 629 708 c 1,17,-1
 715 751 l 1,18,19
 745 695 745 695 766 653 c 1,20,-1
 802 653 l 1,21,22
 770 715 770 715 766 721 c 1,23,-1
 853 764 l 1,24,25
 901 677 901 677 924 628 c 1,26,-1
 839 587 l 1,27,-1
 839 546 l 1,28,29
 799 412 799 412 684 310 c 0,30,31
 635 268 635 268 595 246 c 1,32,-1
 524 340 l 1,33,34
 668 426 668 426 709 546 c 1,35,-1
 102 546 l 1,13,-1
EndSplineSet
Colour: ff00ff
EndChar

StartChar: uni30A4_uni3099.ccmp
Encoding: 1114133 -1 30
Width: 1000
GlyphClass: 2
Flags: W
LayerCount: 2
Fore
SplineSet
924 628 m 1,0,-1
 837 586 l 1,1,2
 771 712 771 712 766 721 c 1,3,-1
 853 764 l 1,4,5
 901 677 901 677 924 628 c 1,0,-1
77 355 m 1,6,7
 339 392 339 392 567 530 c 0,8,9
 628 568 628 568 681 610 c 1,10,11
 657 657 657 657 629 708 c 1,12,-1
 715 751 l 1,13,14
 759 669 759 669 784 617 c 1,15,-1
 722 588 l 1,16,-1
 773 539 l 1,17,18
 684 465 684 465 570 401 c 1,19,-1
 570 -55 l 1,20,-1
 439 -55 l 1,21,-1
 439 339 l 1,22,23
 270 268 270 268 96 243 c 1,24,-1
 77 355 l 1,6,7
EndSplineSet
Colour: ff00ff
EndChar

StartChar: uni30A6_uni309A.ccmp
Encoding: 1114134 -1 31
Width: 1000
Flags: W
LayerCount: 2
Fore
SplineSet
933 637 m 0,0,1
 932 568 932 568 880 529 c 0,2,3
 852 508 852 508 821 502 c 1,4,-1
 821 419 l 2,5,6
 821 90 821 90 515 -10 c 0,7,8
 415 -42 415 -42 291 -48 c 1,9,-1
 274 61 l 1,10,11
 590 78 590 78 669 258 c 0,12,13
 699 326 699 326 699 419 c 2,14,-1
 699 467 l 1,15,-1
 235 467 l 1,16,-1
 235 282 l 1,17,-1
 117 282 l 1,18,-1
 117 573 l 1,19,-1
 399 573 l 1,20,-1
 399 725 l 1,21,-1
 521 725 l 1,22,-1
 521 573 l 1,23,-1
 677 573 l 1,24,25
 661 604 661 604 660 637 c 0,26,27
 659 703 659 703 714 745 c 0,28,29
 753 774 753 774 797 774 c 0,30,31
 865 774 865 774 905 720 c 0,32,33
 933 682 933 682 933 637 c 0,0,1
856 637 m 0,34,35
 855 676 855 676 823 690 c 0,36,37
 809 696 809 696 797 696 c 0,38,39
 758 695 758 695 744 663 c 0,40,41
 738 649 738 649 738 637 c 0,42,43
 739 598 739 598 771 584 c 0,44,45
 785 578 785 578 797 578 c 0,46,47
 835 579 835 579 850 611 c 0,48,49
 856 624 856 624 856 637 c 0,34,35
EndSplineSet
Colour: ff00ff
EndChar

StartChar: uni30A8_uni3099.ccmp
Encoding: 1114135 -1 32
Width: 1000
GlyphClass: 2
Flags: W
LayerCount: 2
Fore
SplineSet
924 628 m 1,0,-1
 837 586 l 1,1,2
 771 712 771 712 766 721 c 1,3,-1
 853 764 l 1,4,5
 901 677 901 677 924 628 c 1,0,-1
726 589 m 1,6,-1
 726 531 l 1,7,-1
 518 531 l 1,8,-1
 518 107 l 1,9,-1
 812 107 l 1,10,-1
 812 -3 l 1,11,-1
 96 -3 l 1,12,-1
 96 107 l 1,13,-1
 390 107 l 1,14,-1
 390 531 l 1,15,-1
 124 531 l 1,16,-1
 124 640 l 1,17,-1
 666 640 l 1,18,19
 649 673 649 673 629 708 c 1,20,-1
 715 751 l 1,21,22
 759 669 759 669 784 617 c 1,23,-1
 726 589 l 1,6,-1
EndSplineSet
Colour: ff00ff
EndChar

StartChar: uni30AA_uni3099.ccmp
Encoding: 1114136 -1 33
Width: 1000
GlyphClass: 2
Flags: W
LayerCount: 2
Fore
SplineSet
924 628 m 1,0,-1
 837 586 l 1,1,2
 771 712 771 712 766 721 c 1,3,-1
 853 764 l 1,4,5
 901 677 901 677 924 628 c 1,0,-1
87 583 m 1,6,-1
 536 583 l 1,7,-1
 536 719 l 1,8,-1
 651 719 l 1,9,-1
 715 751 l 1,10,11
 759 669 759 669 784 617 c 1,12,-1
 713 583 l 1,13,-1
 839 583 l 1,14,-1
 839 476 l 1,15,-1
 654 476 l 1,16,-1
 654 112 l 2,17,18
 654 21 654 21 636 -5 c 0,19,20
 616 -32 616 -32 549 -35 c 0,21,22
 537 -36 537 -36 506 -36 c 0,23,24
 445 -36 445 -36 354 -27 c 1,25,-1
 360 80 l 1,26,27
 450 71 450 71 493 71 c 0,28,29
 526 72 526 72 531 82 c 0,30,31
 536 93 536 93 536 114 c 2,32,-1
 536 360 l 1,33,34
 344 180 344 180 140 64 c 1,35,-1
 85 160 l 1,36,37
 303 284 303 284 502 476 c 1,38,-1
 87 476 l 1,39,-1
 87 583 l 1,6,-1
695 583 m 1,40,41
 676 621 676 621 654 662 c 1,42,-1
 654 583 l 1,43,-1
 695 583 l 1,40,41
EndSplineSet
Colour: ff00ff
EndChar

StartChar: uni30B5_uni309A.ccmp
Encoding: 1114137 -1 34
Width: 1000
Flags: W
LayerCount: 2
Fore
SplineSet
933 634 m 0,0,1
 932 565 932 565 880 526 c 0,2,3
 877 524 877 524 874 522 c 2,4,-1
 874 437 l 1,5,-1
 704 437 l 1,6,-1
 704 389 l 2,7,8
 704 166 704 166 602 68 c 0,9,10
 499 -31 499 -31 259 -52 c 1,11,-1
 236 57 l 1,12,13
 428 75 428 75 499 137 c 0,14,15
 571 200 571 200 578 329 c 0,16,17
 580 367 580 367 580 389 c 2,18,-1
 580 437 l 1,19,-1
 340 437 l 1,20,-1
 340 255 l 1,21,-1
 221 255 l 1,22,-1
 221 437 l 1,23,-1
 79 437 l 1,24,-1
 79 546 l 1,25,-1
 221 546 l 1,26,-1
 221 703 l 1,27,-1
 340 703 l 1,28,-1
 340 546 l 1,29,-1
 580 546 l 1,30,-1
 580 703 l 1,31,-1
 678 703 l 1,32,33
 691 725 691 725 714 742 c 0,34,35
 753 771 753 771 797 771 c 0,36,37
 865 771 865 771 905 717 c 0,38,39
 933 679 933 679 933 634 c 0,0,1
856 634 m 0,40,41
 855 673 855 673 823 687 c 0,42,43
 809 693 809 693 797 693 c 0,44,45
 758 692 758 692 744 660 c 0,46,47
 738 646 738 646 738 634 c 0,48,49
 739 595 739 595 771 581 c 0,50,51
 785 575 785 575 797 575 c 0,52,53
 835 576 835 576 850 608 c 0,54,55
 856 621 856 621 856 634 c 0,40,41
EndSplineSet
Colour: ff00ff
EndChar

StartChar: uni30E7_uni3099.ccmp
Encoding: 1114138 -1 35
Width: 1000
Flags: W
LayerCount: 2
Fore
SplineSet
867 555 m 1,0,-1
 762 505 l 1,1,2
 738 552 738 552 676 666 c 1,3,-1
 780 719 l 1,4,5
 834 620 834 620 867 555 c 1,0,-1
578 522 m 1,6,7
 548 579 548 579 518 631 c 1,8,-1
 621 682 l 1,9,10
 668 596 668 596 706 522 c 1,11,-1
 710 522 l 1,12,-1
 710 -13 l 1,13,-1
 163 -13 l 1,14,-1
 163 86 l 1,15,-1
 593 86 l 1,16,-1
 593 219 l 1,17,-1
 203 219 l 1,18,-1
 203 317 l 1,19,-1
 593 317 l 1,20,-1
 593 425 l 1,21,-1
 163 425 l 1,22,-1
 163 522 l 1,23,-1
 578 522 l 1,6,7
EndSplineSet
Colour: ff00ff
EndChar

StartChar: uni30E9_uni309A.ccmp
Encoding: 1114139 -1 36
Width: 1000
Flags: W
LayerCount: 2
Fore
SplineSet
896 637 m 0,0,1
 895 568 895 568 843 529 c 0,2,3
 804 500 804 500 760 500 c 0,4,5
 694 500 694 500 654 551 c 1,6,-1
 172 551 l 1,7,-1
 172 660 l 1,8,-1
 624 660 l 1,9,10
 631 711 631 711 677 745 c 0,11,12
 716 774 716 774 760 774 c 0,13,14
 828 774 828 774 868 720 c 0,15,16
 896 682 896 682 896 637 c 0,0,1
819 637 m 0,17,18
 818 676 818 676 786 690 c 0,19,20
 772 696 772 696 760 696 c 0,21,22
 721 695 721 695 707 663 c 0,23,24
 701 649 701 649 701 637 c 0,25,26
 702 598 702 598 734 584 c 0,27,28
 748 578 748 578 760 578 c 0,29,30
 798 579 798 579 813 611 c 0,31,32
 819 624 819 624 819 637 c 0,17,18
106 424 m 1,33,-1
 823 424 l 1,34,-1
 823 403 l 2,35,36
 821 64 821 64 480 -28 c 0,37,38
 374 -55 374 -55 252 -62 c 1,39,-1
 233 48 l 1,40,41
 550 65 550 65 648 212 c 0,42,43
 678 258 678 258 690 314 c 1,44,-1
 106 314 l 1,45,-1
 106 424 l 1,33,-1
EndSplineSet
Colour: ff00ff
EndChar

StartChar: uni30EA_uni309A.ccmp
Encoding: 1114140 -1 37
Width: 1000
Flags: W
LayerCount: 2
Fore
SplineSet
899 633 m 0,0,1
 898 564 898 564 846 525 c 0,2,3
 807 496 807 496 764 496 c 1,4,-1
 764 424 l 2,5,6
 764 147 764 147 598 28 c 0,7,8
 486 -52 486 -52 289 -71 c 1,9,-1
 263 41 l 1,10,11
 468 67 468 67 549 146 c 0,12,13
 628 223 628 223 634 391 c 1,14,-1
 634 421 l 1,15,-1
 634 590 l 1,16,17
 627 611 627 611 626 633 c 0,18,19
 625 699 625 699 680 741 c 0,20,21
 719 770 719 770 763 770 c 0,22,23
 831 770 831 770 871 716 c 0,24,25
 899 678 899 678 899 633 c 0,0,1
822 633 m 0,26,27
 821 672 821 672 789 686 c 0,28,29
 775 692 775 692 763 692 c 0,30,31
 724 691 724 691 710 659 c 0,32,33
 704 645 704 645 704 633 c 0,34,35
 705 594 705 594 737 580 c 0,36,37
 751 574 751 574 763 574 c 0,38,39
 801 575 801 575 816 607 c 0,40,41
 822 620 822 620 822 633 c 0,26,27
176 263 m 1,42,-1
 176 673 l 1,43,-1
 303 673 l 1,44,-1
 303 263 l 1,45,-1
 176 263 l 1,42,-1
EndSplineSet
Colour: ff00ff
EndChar

StartChar: uni30EB_uni309A.ccmp
Encoding: 1114141 -1 38
Width: 1000
Flags: W
LayerCount: 2
Fore
SplineSet
886 577 m 0,0,1
 885 508 885 508 833 469 c 0,2,3
 794 440 794 440 750 440 c 0,4,5
 682 440 682 440 642 494 c 0,6,7
 614 533 614 533 613 577 c 0,8,9
 612 643 612 643 667 685 c 0,10,11
 706 714 706 714 750 714 c 0,12,13
 818 714 818 714 858 660 c 0,14,15
 886 622 886 622 886 577 c 0,0,1
809 577 m 0,16,17
 808 616 808 616 776 630 c 0,18,19
 762 636 762 636 750 636 c 0,20,21
 711 635 711 635 697 603 c 0,22,23
 691 589 691 589 691 577 c 0,24,25
 692 538 692 538 724 524 c 0,26,27
 738 518 738 518 750 518 c 0,28,29
 788 519 788 519 803 551 c 0,30,31
 809 564 809 564 809 577 c 0,16,17
590 78 m 1,32,33
 706 110 706 110 751 229 c 0,34,35
 775 295 775 295 782 379 c 1,36,-1
 898 363 l 1,37,38
 859 -48 859 -48 485 -50 c 2,39,-1
 464 -50 l 1,40,-1
 464 669 l 1,41,-1
 590 669 l 1,42,-1
 590 78 l 1,32,33
222 669 m 1,43,-1
 345 669 l 1,44,-1
 345 484 l 2,45,46
 345 220 345 220 300 110 c 0,47,48
 264 22 264 22 177 -30 c 0,49,50
 154 -44 154 -44 125 -58 c 1,51,-1
 60 44 l 1,52,53
 140 85 140 85 171 130 c 0,54,55
 210 188 210 188 218 331 c 0,56,57
 222 384 222 384 222 484 c 2,58,-1
 222 669 l 1,43,-1
EndSplineSet
Colour: ff00ff
EndChar

StartChar: uni30EC_uni309A.ccmp
Encoding: 1114142 -1 39
Width: 1000
Flags: W
LayerCount: 2
Fore
SplineSet
784 563 m 0,0,1
 783 494 783 494 731 455 c 0,2,3
 692 426 692 426 648 426 c 0,4,5
 580 426 580 426 540 480 c 0,6,7
 512 519 512 519 511 563 c 0,8,9
 510 629 510 629 565 671 c 0,10,11
 604 700 604 700 648 700 c 0,12,13
 716 700 716 700 756 646 c 0,14,15
 784 608 784 608 784 563 c 0,0,1
707 563 m 0,16,17
 706 602 706 602 674 616 c 0,18,19
 660 622 660 622 648 622 c 0,20,21
 609 621 609 621 595 589 c 0,22,23
 589 575 589 575 589 563 c 0,24,25
 590 524 590 524 622 510 c 0,26,27
 636 504 636 504 648 504 c 0,28,29
 686 505 686 505 701 537 c 0,30,31
 707 550 707 550 707 563 c 0,16,17
303 68 m 1,32,33
 512 90 512 90 624 212 c 0,34,35
 697 293 697 293 743 424 c 1,36,-1
 855 381 l 1,37,38
 763 131 763 131 581 30 c 0,39,40
 433 -52 433 -52 194 -52 c 2,41,-1
 172 -52 l 1,42,-1
 172 673 l 1,43,-1
 303 673 l 1,44,-1
 303 68 l 1,32,33
EndSplineSet
Colour: ff00ff
EndChar

StartChar: uni30ED_uni309A.ccmp
Encoding: 1114143 -1 40
Width: 1000
Flags: W
LayerCount: 2
Fore
SplineSet
913 635 m 0,0,1
 912 566 912 566 860 527 c 0,2,3
 844 515 844 515 828 508 c 1,4,-1
 828 -22 l 1,5,-1
 240 -22 l 1,6,-1
 112 -22 l 1,7,-1
 112 646 l 1,8,-1
 640 646 l 1,9,10
 643 705 643 705 694 743 c 0,11,12
 733 772 733 772 777 772 c 0,13,14
 845 772 845 772 885 718 c 0,15,16
 913 680 913 680 913 635 c 0,0,1
836 635 m 0,17,18
 835 674 835 674 803 688 c 0,19,20
 789 694 789 694 777 694 c 0,21,22
 738 693 738 693 724 661 c 0,23,24
 718 647 718 647 718 635 c 0,25,26
 719 596 719 596 751 582 c 0,27,28
 765 576 765 576 777 576 c 0,29,30
 815 577 815 577 830 609 c 0,31,32
 836 622 836 622 836 635 c 0,17,18
240 89 m 1,33,-1
 700 89 l 1,34,-1
 700 521 l 1,35,36
 691 527 691 527 684 535 c 1,37,-1
 240 535 l 1,38,-1
 240 89 l 1,33,-1
EndSplineSet
Colour: ff00ff
EndChar

StartChar: uni30F3_uni3099.ccmp
Encoding: 1114144 -1 41
Width: 1000
Flags: W
LayerCount: 2
Fore
SplineSet
924 628 m 1,0,-1
 837 586 l 1,1,2
 771 712 771 712 766 721 c 1,3,-1
 853 764 l 1,4,5
 901 677 901 677 924 628 c 1,0,-1
784 617 m 1,6,-1
 698 576 l 1,7,8
 668 638 668 638 629 708 c 1,9,-1
 715 751 l 1,10,11
 759 669 759 669 784 617 c 1,6,-1
730 586 m 1,12,-1
 845 561 l 1,13,14
 770 150 770 150 409 25 c 0,15,16
 296 -13 296 -13 154 -27 c 1,17,-1
 136 91 l 1,18,19
 453 123 453 123 597 290 c 0,20,21
 693 403 693 403 730 586 c 1,12,-1
115 564 m 1,22,-1
 174 673 l 1,23,24
 306 610 306 610 456 527 c 1,25,-1
 395 420 l 1,26,27
 267 490 267 490 115 564 c 1,22,-1
EndSplineSet
Colour: ff00ff
EndChar

StartChar: uni30FC_uni3099.ccmp
Encoding: 1114145 -1 42
Width: 1000
Flags: W
LayerCount: 2
Fore
SplineSet
833 555 m 1,0,-1
 728 505 l 1,1,2
 704 552 704 552 642 666 c 1,3,-1
 746 719 l 1,4,5
 800 620 800 620 833 555 c 1,0,-1
672 522 m 1,6,-1
 569 473 l 1,7,8
 526 557 526 557 484 631 c 1,9,-1
 587 682 l 1,10,11
 634 596 634 596 672 522 c 1,6,-1
187 276 m 1,12,-1
 81 329 l 1,13,-1
 129 431 l 1,14,-1
 196 398 l 2,15,16
 198 398 198 398 220 389 c 1,17,-1
 245 389 l 1,18,-1
 854 389 l 1,19,-1
 854 267 l 1,20,-1
 233 267 l 2,21,22
 230 267 230 267 208 269 c 1,23,-1
 187 276 l 1,12,-1
EndSplineSet
Colour: ff00ff
EndChar
